<svg width="165" height="41" viewBox="0 0 165 41" fill="none" xmlns="http://www.w3.org/2000/svg">
<path d="M46.4302 1.38045L38.917 2.40644C38.0045 2.53134 37.3102 3.26738 37.2122 4.18631C36.5847 9.98541 32.0892 14.8433 26.0715 15.6641C19.9871 16.4938 14.3032 12.934 12.2024 7.41596C11.913 6.65762 11.1386 6.19815 10.3374 6.30967L2.87762 7.33121C1.81829 7.47395 1.1373 8.53117 1.43551 9.56163C4.70696 20.7137 15.7008 28.0964 27.5403 26.4816C39.4644 24.8534 48.1215 14.6604 48.1794 2.93728C48.1838 1.99158 47.3649 1.25554 46.4302 1.38491V1.38045Z" fill="white"/>
<path d="M37.7776 32.1602L37.2524 29.0778C37.0743 27.918 35.8103 27.2756 34.7688 27.8154C32.0225 29.2428 28.9603 29.9432 25.8669 29.8495L25.3773 29.8361C24.1443 29.8004 23.2052 30.9335 23.4767 32.1424L24.0019 34.5155C24.1622 35.2427 24.8788 36.6746 24.9099 36.7237C26.4277 39.1994 29.392 40.5555 32.3786 39.8864C35.9349 39.0924 38.2449 35.7066 37.7776 32.1558V32.1602Z" fill="white"/>
<path d="M144.899 23.9297L144.89 23.9074L141.854 14.049C141.672 13.4557 141.115 13.0542 140.466 13.0542C140.31 13.0542 140.159 13.0765 140.007 13.1256L136.905 14.0846C136.362 14.2541 135.975 14.6958 135.868 15.1998C135.062 14.9367 134.27 14.8118 133.455 14.8118C132.676 14.8118 131.88 14.9367 131.087 15.182C124.985 17.0689 121.66 23.9253 123.672 30.4693V30.4871C125.292 35.7465 130.028 39.4178 135.191 39.4178C136.277 39.4178 137.354 39.2527 138.396 38.9315C139.936 38.4542 141.458 37.4594 142.259 36.4914C142.5 36.9643 142.994 37.2632 143.559 37.2632C143.715 37.2632 143.866 37.2409 144.017 37.1918L147.12 36.2327C147.908 35.9918 148.357 35.18 148.126 34.4261L144.894 23.9253L144.899 23.9297ZM136.78 31.7496L136.749 31.7719L136.713 31.7986C136.66 31.8343 136.602 31.87 136.549 31.9012C136.446 31.9592 136.357 32.0038 136.277 32.044L136.184 32.0841C136.046 32.1421 135.935 32.1867 135.832 32.218C135.489 32.325 135.138 32.3785 134.777 32.3785C132.788 32.3785 130.896 30.786 130.179 28.5021V28.4932L130.171 28.4753L130.162 28.4485C129.329 25.6917 130.487 22.8814 132.743 22.1855C132.846 22.1543 132.957 22.1275 133.108 22.0963H133.139L133.206 22.0785C133.295 22.0651 133.393 22.0517 133.513 22.0428C133.58 22.0383 133.642 22.0339 133.709 22.0339H133.785C135.258 22.0339 136.691 22.8859 137.639 24.3089C137.719 24.4293 137.782 24.5364 137.848 24.6479L137.906 24.746C137.96 24.8442 138.009 24.9379 138.058 25.0405C138.08 25.0851 138.102 25.1341 138.124 25.1832L138.138 25.21C138.178 25.3037 138.213 25.3839 138.249 25.4687C138.294 25.5847 138.338 25.7051 138.378 25.83L138.4 25.8925L138.414 25.9282L138.423 25.9639L138.44 26.0263C138.476 26.1512 138.512 26.2761 138.538 26.3966C138.556 26.4858 138.574 26.575 138.592 26.6642L138.601 26.7044C138.61 26.7579 138.618 26.8114 138.627 26.8605C138.645 26.9675 138.654 27.0791 138.667 27.1861L138.676 27.3021C138.685 27.427 138.694 27.5519 138.694 27.6768C138.712 29.4165 138 30.9332 136.794 31.7496H136.78Z" fill="white"/>
<path d="M59.7565 13.9375C58.7461 13.6118 57.6957 13.4512 56.6319 13.4512C51.4065 13.4512 46.5016 17.3768 44.7123 23.0019C43.6441 26.352 43.7821 29.8716 45.0951 32.9139C46.4215 35.9785 48.776 38.1866 51.727 39.1323C52.7463 39.4579 53.8056 39.623 54.8783 39.623C57.3129 39.623 59.7031 38.7888 61.795 37.2141C62.1556 36.942 62.3648 36.5093 62.3514 36.0632C62.3381 35.6172 62.12 35.2157 61.7505 34.9659L58.8752 32.9808C58.6438 32.8247 58.3767 32.7444 58.1052 32.7444C57.8827 32.7444 57.6646 32.7979 57.4732 32.9005C56.8278 33.244 56.0444 33.4269 55.2076 33.4269C54.6557 33.4269 54.1083 33.3466 53.6187 33.1905C52.1721 32.7265 50.2982 31.0849 50.6499 28.8768C50.6944 28.6047 50.8368 28.3281 51.0326 28.3281C51.0638 28.3281 51.0994 28.3326 51.1395 28.346L63.8692 32.4232C64.0739 32.4901 64.2831 32.5213 64.4968 32.5213C65.3959 32.5213 66.1792 31.9459 66.4552 31.0894L66.7757 30.0768C67.8439 26.7267 67.7059 23.2071 66.3929 20.1648C65.0665 17.1002 62.7119 14.8921 59.761 13.9464L59.7565 13.9375ZM60.7046 24.2375C60.6645 24.2866 60.6022 24.3134 60.5399 24.3134C60.5176 24.3134 60.4954 24.3134 60.4731 24.3045L53.1736 21.967C53.0712 21.9358 53.04 21.851 53.0311 21.8153C53.0222 21.7752 53.0133 21.6949 53.0801 21.6235C53.9124 20.7313 55.2388 20.1782 56.534 20.1782C56.9569 20.1782 57.3575 20.2362 57.718 20.3522C59.2269 20.8339 60.5354 22.4398 60.758 24.0814C60.7669 24.1573 60.7357 24.2108 60.709 24.242L60.7046 24.2375Z" fill="white"/>
<path d="M79.6478 26.4592L92.2573 22.0252C92.7736 21.8423 93.192 21.4676 93.4279 20.9724C93.6638 20.4773 93.695 19.9152 93.5169 19.3977L93.1653 18.394C91.2336 12.8849 86.4577 9.18241 81.2768 9.18241C80.1107 9.18241 78.9668 9.37868 77.8718 9.76231C74.9476 10.7928 72.6553 13.0633 71.418 16.1636C70.1895 19.2416 70.1539 22.7657 71.3111 26.0801C73.2429 31.5892 78.0187 35.2917 83.2041 35.2917C84.3702 35.2917 85.5141 35.0954 86.6091 34.7118C89.9339 33.5431 92.4443 30.7684 93.4902 27.0971C93.6104 26.6689 93.5303 26.2228 93.2632 25.8704C93.0006 25.5225 92.6045 25.3262 92.1727 25.3262C92.1505 25.3262 92.1238 25.3262 92.1015 25.3262L88.612 25.4779C88.1001 25.5046 87.655 25.8035 87.4414 26.263C86.9206 27.3782 85.7812 28.3819 84.5394 28.819C84.0854 28.9796 83.5646 29.0644 83.035 29.0644C82.2961 29.0644 80.4801 28.8815 79.5766 27.173C79.4653 26.9633 79.4252 26.7358 79.4786 26.602C79.4964 26.5574 79.532 26.4949 79.6478 26.4548V26.4592ZM77.4401 20.1472C77.4178 20.1561 77.3911 20.1605 77.3689 20.1605C77.311 20.1605 77.2487 20.1338 77.2086 20.0847C77.1819 20.0535 77.1508 19.9999 77.1597 19.9286C77.3333 18.2825 78.5973 16.6409 80.0973 16.1146C80.4934 15.9763 80.9341 15.9049 81.4014 15.9049C82.67 15.9049 83.9251 16.409 84.7619 17.2565C84.8287 17.3279 84.8242 17.4082 84.8153 17.4483C84.8064 17.484 84.7753 17.5688 84.6773 17.6045L77.4445 20.1472H77.4401Z" fill="white"/>
<path d="M157.642 34.4214L152.897 33.3374C152.817 33.3195 152.737 33.3106 152.657 33.3106C152.172 33.3106 151.758 33.6363 151.651 34.1002L151.179 36.1789C150.774 37.9722 151.967 39.7788 153.836 40.2071C154.103 40.2695 154.375 40.2963 154.642 40.2963C156.253 40.2963 157.62 39.2391 157.962 37.7268L158.434 35.6481C158.559 35.0994 158.203 34.5507 157.642 34.4214Z" fill="white"/>
<path d="M163.402 13.0723C163.183 12.7154 162.836 12.4656 162.431 12.3674L158.577 11.4485C158.456 11.4218 158.336 11.4039 158.212 11.4039C157.482 11.4039 156.859 11.8991 156.689 12.6128L152.639 29.6934C152.439 30.5365 152.96 31.384 153.801 31.5847L157.655 32.5037C157.776 32.5304 157.896 32.5483 158.02 32.5483C158.75 32.5483 159.373 32.0531 159.543 31.3394L163.593 14.2588C163.691 13.8529 163.624 13.4291 163.402 13.0723Z" fill="white"/>
<path d="M119.924 12.2426L115.643 11.3281C115.554 11.3102 115.46 11.2969 115.367 11.2969C114.717 11.2969 114.143 11.7831 114 12.4478L112.531 19.3576C112.469 19.6565 112.229 19.8706 111.957 19.8706C111.922 19.8706 111.886 19.8706 111.855 19.8617L106.941 18.8134C106.638 18.7509 106.451 18.4208 106.527 18.0773L107.996 11.1675C108.16 10.3913 107.693 9.62851 106.954 9.46792L102.659 8.54898C102.57 8.53114 102.477 8.51776 102.383 8.51776C101.733 8.51776 101.159 9.00399 101.017 9.66865L96.4456 31.1655C96.3655 31.5357 96.4278 31.9149 96.6192 32.2361C96.815 32.5617 97.1266 32.7892 97.4871 32.865L101.782 33.784C101.871 33.8018 101.965 33.8152 102.058 33.8152C102.708 33.8152 103.282 33.329 103.425 32.6643L104.938 25.5448C105 25.2459 105.241 25.0318 105.512 25.0318C105.548 25.0318 105.583 25.0318 105.615 25.0407L110.528 26.089C110.671 26.1202 110.791 26.2095 110.867 26.3388C110.951 26.4816 110.978 26.6511 110.942 26.8251L109.429 33.9446C109.349 34.3148 109.411 34.694 109.603 35.0152C109.798 35.3408 110.11 35.5683 110.471 35.6441L114.752 36.5586C114.841 36.5765 114.935 36.5898 115.028 36.5898C115.678 36.5898 116.252 36.1036 116.395 35.4389L120.966 13.9466C121.131 13.1704 120.663 12.4076 119.924 12.247V12.2426Z" fill="white"/>
</svg>
